<?xml version="1.0" standalone="no"?>
<!DOCTYPE svg PUBLIC "-//W3C//DTD SVG 20010904//EN"
 "http://www.w3.org/TR/2001/REC-SVG-20010904/DTD/svg10.dtd">
<svg version="1.0" xmlns="http://www.w3.org/2000/svg"
 width="200.000000pt" height="200.000000pt" viewBox="0 0 200.000000 200.000000"
 preserveAspectRatio="xMidYMid meet">
<metadata>
Created by potrace 1.11, written by Peter Selinger 2001-2013
</metadata>
<g transform="translate(0.000000,200.000000) scale(0.100000,-0.100000)"
fill="#000000" stroke="none">
<path d="M735 1757 c-11 -7 -22 -15 -25 -18 -3 -3 -20 -14 -37 -23 -18 -9 -33
-21 -33 -26 0 -6 -3 -9 -7 -9 -21 3 -34 -2 -28 -11 4 -6 3 -9 -2 -8 -14 4 -53
-13 -53 -23 0 -5 -6 -9 -13 -9 -7 0 -24 -10 -37 -22 -14 -13 -26 -22 -27 -20
-7 6 -24 1 -19 -6 3 -5 -1 -9 -8 -9 -7 0 -37 -14 -67 -33 l-55 -32 3 -77 c4
-73 4 -87 2 -113 -1 -7 0 -68 1 -135 1 -85 6 -123 14 -123 7 0 8 -3 0 -8 -12
-8 -13 -112 -1 -112 5 0 5 -5 1 -11 -11 -19 -4 -192 9 -208 9 -11 9 -13 0 -8
-9 6 -11 -23 -10 -118 1 -69 6 -125 10 -125 4 0 24 -11 44 -25 20 -13 40 -22
45 -19 4 3 8 1 8 -3 0 -5 30 -25 68 -44 37 -18 69 -37 72 -40 3 -3 41 -26 85
-49 44 -24 88 -48 97 -54 13 -8 27 -5 60 14 24 13 46 28 50 34 4 6 8 8 8 4 0
-4 54 27 121 68 66 41 125 74 130 74 5 0 9 5 9 10 0 6 5 10 10 10 20 0 130 76
123 85 -5 4 -2 5 4 1 16 -9 56 17 45 29 -4 5 -2 5 5 1 14 -8 76 28 66 38 -4 4
0 4 10 0 10 -3 17 -1 17 5 0 6 5 11 10 11 6 0 27 11 48 24 20 12 41 23 46 24
5 0 12 4 15 9 3 6 33 25 66 45 l60 34 -2 95 c-1 52 -2 156 -3 232 0 107 -3
136 -13 131 -9 -5 -9 -4 1 7 20 22 14 48 -18 64 -16 8 -33 15 -36 14 -4 0 -10
3 -13 8 -3 5 -33 24 -66 43 -33 18 -78 43 -101 56 -102 57 -137 73 -147 67 -5
-3 -7 -2 -4 4 5 9 -33 34 -168 108 -89 50 -105 56 -116 49 -8 -4 -9 -3 -5 5 4
6 0 14 -11 18 -10 4 -34 16 -53 28 -56 35 -151 85 -158 84 -4 0 -16 -6 -27
-12z m559 -395 c3 -5 -1 -9 -9 -9 -8 0 -12 4 -9 9 3 4 7 8 9 8 2 0 6 -4 9 -8z
m-891 -157 c-3 -9 -8 -14 -10 -11 -3 3 -2 9 2 15 9 16 15 13 8 -4z m-37 -85
c0 -12 -4 -16 -9 -11 -5 5 -6 14 -3 20 10 15 12 14 12 -9z"/>
</g>
</svg>
